<svg width="114" height="114" viewBox="0 0 114 114" fill="none" xmlns="http://www.w3.org/2000/svg">
<circle cx="57" cy="57" r="57" fill="#1F1F1F"/>
<path d="M67.6265 22.8206C67.9195 22.7476 68.1395 22.3806 68.4325 22.3076C68.7255 22.2346 66.3795 21.6476 66.0865 21.3546C65.7935 21.0616 65.8665 21.0616 65.6465 21.0616C65.4265 21.0616 65.7935 20.1816 66.0865 20.0356C66.3795 19.8896 64.7665 19.1556 64.1075 18.7156L62.8615 17.5426C62.1376 17.316 61.4277 17.0468 60.7355 16.7366C60.4057 16.4185 60.1762 16.0107 60.0755 15.5636C59.829 15.5252 59.5767 15.5503 59.3425 15.6366C59.0495 15.7836 58.9755 16.0036 58.6825 16.1496C57.7779 16.783 56.757 17.2313 55.6785 17.4686C55.1655 17.6156 54.6525 17.5416 54.4325 17.6886C53.9451 17.6472 53.4568 17.7593 53.0362 18.009C52.6155 18.2588 52.2835 18.6338 52.0865 19.0816C51.2792 19.2107 50.4533 19.1605 49.6675 18.9346C48.9345 18.9346 48.6415 19.5216 48.2015 19.5946C47.9553 19.7442 47.7727 19.9791 47.6885 20.2546C47.1849 20.2848 46.6941 20.4253 46.2507 20.666C45.8073 20.9067 45.4222 21.2418 45.1225 21.6476C44.547 21.4139 44.0418 21.0349 43.6565 20.5476C40.3565 20.6946 39.3305 20.1076 38.8915 19.7416C38.4525 19.3756 38.3785 18.7156 37.9385 18.2756C37.4985 17.8356 37.2785 19.2286 36.6925 19.5216H35.9595C35.5195 19.6686 34.6395 20.5476 33.9065 20.8416C32.4786 21.2659 30.9697 21.3413 29.5065 21.0616C29.4335 21.2086 28.7735 21.2817 28.5535 21.4287C28.3335 21.5757 28.4805 21.7956 28.3335 21.8686C27.9344 21.9302 27.5417 22.0283 27.1605 22.1616C26.7205 22.3816 26.5735 22.6746 26.2805 22.6746H24.6645C23.99 22.9481 23.4058 23.4054 22.9785 23.9946C24.6645 23.4816 26.7175 23.6277 29.3565 24.7277C29.3565 24.7277 33.0955 24.6546 33.4625 26.9276C33.5139 27.2383 33.669 27.5224 33.9025 27.7337C33.7996 28.2012 33.5715 28.6319 33.2425 28.9796C33.2425 29.7126 35.2215 30.4456 35.3685 30.9586V31.6917C36.2485 33.4517 35.8085 34.4046 35.7355 34.5506C35.6625 34.6966 36.0285 35.8706 35.9555 36.1636C35.5981 37.4856 35.1572 38.7835 34.6355 40.0496C34.6355 40.0496 34.4155 42.1027 34.2685 42.6157C34.0098 43.1987 33.837 43.8161 33.7555 44.4487C33.8248 44.8989 34.0007 45.3261 34.2685 45.6946C35.2994 47.1551 36.0458 48.7967 36.4685 50.5336L37.6415 55.2986C37.4679 56.3421 37.4679 57.4072 37.6415 58.4506C37.7145 58.9636 36.9815 60.4296 37.0545 60.9436L38.3005 61.7496L38.1545 64.1687C38.2275 64.4617 39.1075 67.7606 37.8615 69.0806C36.6155 70.4006 36.8355 71.8667 35.9555 72.3067C35.0755 72.7467 37.8615 73.8466 38.0085 74.8726C38.1555 75.8986 37.6415 76.1187 37.5685 76.5587C37.4955 76.9987 38.3745 78.0986 38.6685 79.1246C38.9625 80.1506 37.4955 80.4447 38.5215 82.1307C38.9647 83.0309 39.2617 83.996 39.4015 84.9897C39.5525 85.7822 39.7485 86.5654 39.9885 87.3357C40.4285 88.4357 40.3555 92.9807 41.1615 94.5207C41.4697 95.0733 41.8387 95.5899 42.2615 96.0607C42.7015 96.6477 41.8215 97.6007 42.2615 98.4797C42.7015 99.3587 42.9215 99.2127 42.9945 99.5057C43.0675 99.7987 42.7015 98.8457 42.6275 98.4797C42.5535 98.1137 43.2145 97.5997 43.2145 96.9397C43.0995 96.239 42.8506 95.5671 42.4815 94.9607C42.1313 93.5215 41.9832 92.0406 42.0415 90.5607C42.0415 90.5607 42.7745 86.6017 42.5545 85.9417C42.3345 85.2817 42.0415 85.2087 42.0415 84.6957C42.1757 84.1846 42.3729 83.6921 42.6285 83.2297C42.7292 82.945 42.7292 82.6344 42.6285 82.3497C42.538 82.0648 42.4885 81.7685 42.4815 81.4697L43.2145 79.5637C43.3615 79.0507 42.3345 77.9506 42.0415 74.6516C41.8945 73.3316 42.7745 71.6456 42.9945 70.9856C43.2145 70.3256 43.6545 67.9066 43.8745 67.5396C44.4172 66.4654 44.7411 65.2941 44.8275 64.0936C44.7545 63.5806 43.5075 63.1406 43.5075 62.7736C43.5075 59.6206 44.7535 59.4017 43.0675 58.1547C43.1648 57.6477 43.4216 57.1852 43.8005 56.8347C44.1675 56.3947 43.8735 55.8086 44.6805 54.8556C45.1143 54.3789 45.4174 53.7981 45.5605 53.1696C45.4875 52.4366 44.6075 51.8496 44.4605 51.5566C43.9371 50.5078 43.472 49.4308 43.0675 48.3307C42.7745 47.3777 43.0675 47.7436 42.9945 47.3046C42.9215 46.8656 42.6275 46.7176 42.2615 46.0586C41.8955 45.3996 42.4085 44.9587 42.0415 44.5187H42.3345C42.1875 44.1517 42.5545 43.0526 42.2615 42.5396C41.9685 42.0266 41.8215 42.2466 41.6015 41.9526C41.5612 40.4394 42.0543 38.9601 42.9945 37.7736C43.4345 37.2606 43.1415 36.6006 43.4345 36.3076C43.478 35.9884 43.4531 35.6636 43.3615 35.3546C43.2145 35.1346 42.0415 35.2816 42.0415 35.2816C42.2602 34.8786 42.3377 34.4139 42.2615 33.9616C41.7485 30.5156 42.6285 30.0757 43.2875 29.2697C43.9465 28.4637 44.1675 28.9766 44.3875 28.9026C44.6075 28.8286 44.6805 28.4626 45.3405 28.3896C46.0005 28.3166 45.1935 27.2896 44.9005 26.8496C44.853 26.5406 44.9057 26.2244 45.0507 25.9473C45.1957 25.6702 45.4255 25.4468 45.7065 25.3097C45.5586 24.6873 45.311 24.093 44.9735 23.5496C45.1205 23.1096 46.4395 22.5966 47.7595 22.5966C49.0795 22.5966 49.7385 23.2566 50.3985 23.3296V23.0366C50.3985 23.0366 51.3515 22.5236 52.5245 24.0626C53.6975 25.6016 53.4045 25.4556 53.9905 25.6756C53.9362 25.8327 53.8386 25.9712 53.7089 26.0751C53.5791 26.179 53.4227 26.244 53.2575 26.2627C53.3305 26.5557 53.6245 26.6297 53.9905 26.7757C53.6235 30.2217 54.2835 30.1477 53.8435 30.5877C53.4035 31.0277 53.1105 30.2206 53.1105 31.0276C53.1105 33.0066 54.8705 32.5677 55.2365 33.7407C55.6025 34.9137 53.7705 37.0406 55.0895 39.6056C55.1169 39.6312 55.1374 39.6633 55.1489 39.699C55.1604 39.7347 55.1626 39.7727 55.1553 39.8095C55.148 39.8463 55.1314 39.8805 55.1071 39.9091C55.0828 39.9377 55.0516 39.9595 55.0165 39.9726C54.9435 40.0456 54.8695 40.0456 54.8695 40.1926C54.8695 40.3396 54.5025 43.7847 54.7965 44.5187C55.0905 45.2527 56.4095 45.1786 56.1165 46.1316C55.8235 47.0846 55.6765 50.3106 55.3835 50.7506C55.0905 51.1906 55.6765 52.2906 55.3105 53.0966C54.9445 53.9026 55.4575 53.9026 55.6775 54.0496C55.8975 54.1966 56.1175 55.2226 56.1175 55.2226C56.1175 55.2226 57.2905 58.4486 57.1435 59.0346C56.8731 59.883 56.5549 60.7153 56.1905 61.5276L56.0435 63.5806L55.8235 63.3606L55.6035 65.9996C55.5305 66.2926 54.8705 66.5126 54.7235 66.9526C54.5765 67.3926 54.7965 67.9786 54.4305 68.3456C54.0645 68.7126 53.8435 70.3986 53.3305 70.6186C53.3428 71.0537 53.4472 71.4813 53.6368 71.8731C53.8264 72.2649 54.0969 72.6121 54.4305 72.8917C54.6113 73.0737 54.7383 73.3021 54.7975 73.5516C54.9445 73.9916 55.0905 74.0646 55.2375 74.1386C54.682 76.1456 54.6067 78.2552 55.0175 80.2967H55.3785C55.5732 80.6612 55.6977 81.0591 55.7455 81.4697C55.7139 82.0476 55.59 82.6168 55.3785 83.1557C55.2315 83.6687 55.7455 84.0356 55.7455 84.4016C55.7455 84.7676 55.2325 85.2077 55.2325 85.6477C55.256 85.9836 55.3562 86.3096 55.5255 86.6007V87.8466C55.6903 88.2987 55.8132 88.765 55.8925 89.2397C56.0395 89.8267 56.2595 89.8267 56.2595 89.8267C56.2595 89.8267 55.3795 91.4397 55.0865 91.8797C55.1189 92.3316 55.2176 92.7764 55.3795 93.1997C55.5255 93.4394 55.7268 93.6406 55.9665 93.7867C56.1494 93.923 56.2996 94.0982 56.4065 94.2997C56.4657 94.4124 56.4911 94.5398 56.4795 94.6666C56.4795 94.8136 56.6995 94.9597 56.8465 95.1067H56.7785C56.9255 97.5257 57.6585 97.5257 57.6585 97.5257C57.6585 97.5257 57.8785 100.092 57.5855 100.312C57.2925 100.532 57.2925 101.778 57.2925 101.778C56.9388 102.395 56.7229 103.082 56.6595 103.79C56.5962 104.499 56.6869 105.213 56.9255 105.884C57.1455 104.124 57.8055 103.905 58.5385 103.025C59.2715 102.145 58.6855 102.072 58.9055 101.705L59.2725 101.485L59.4195 98.9917C59.6395 98.8447 59.2725 96.9387 60.0065 96.8657C60.7405 96.7927 59.9335 95.3257 59.9335 94.8867C60.1894 94.5024 60.3872 94.0826 60.5205 93.6407C60.4583 92.9091 60.434 92.1748 60.4475 91.4407C60.8768 90.9706 61.1572 90.3839 61.2535 89.7547C61.2535 89.0217 60.0805 87.7757 59.6405 87.1887C59.2005 86.6017 59.7875 85.7957 59.0535 85.7957C58.3195 85.7957 59.4205 84.4757 59.4935 83.8167C59.7674 82.1855 59.7174 80.5165 59.3465 78.9047C59.2735 78.6847 59.8595 78.3176 60.0795 78.0246C60.2995 77.7316 59.4925 76.3387 60.0065 74.9457C59.9572 74.6847 59.8577 74.4357 59.7135 74.2127C59.9114 73.7914 60.0591 73.3484 60.1535 72.8927C60.1535 72.3057 59.7135 72.1596 59.6405 71.9396C59.6339 71.8248 59.6575 71.7101 59.7089 71.6072C59.7603 71.5042 59.8377 71.4165 59.9335 71.3526L59.7135 71.2056C60.0805 70.7656 60.5195 69.6656 59.6405 69.5196C58.7615 69.3736 59.8605 69.3726 59.6405 69.0066C59.4205 68.6406 59.5675 68.5666 59.7135 68.2736C59.7781 67.8862 59.8025 67.4931 59.7865 67.1007C60.0158 66.4342 60.3618 65.8138 60.8085 65.2687C60.8376 64.9482 60.8867 64.6299 60.9555 64.3156C61.0285 64.0956 61.9085 63.3627 61.8355 62.3367C61.77 61.932 61.8478 61.5171 62.0555 61.1636C62.8615 59.0376 63.3755 59.6236 64.1085 58.4506L64.3285 56.9106C64.5485 56.3236 63.3025 52.7317 62.7885 51.8517C62.8172 51.2199 62.6912 50.5907 62.4215 50.0187C62.3362 49.8878 62.2908 49.7349 62.2908 49.5786C62.2908 49.4224 62.3362 49.2695 62.4215 49.1386C63.0815 47.8926 63.4475 45.4726 62.7885 45.2526C62.1295 45.0326 63.5945 44.2266 64.3285 43.3466C65.0625 42.4666 63.4485 38.8016 63.3025 37.8466C63.1565 36.8916 64.5485 35.3536 63.7425 34.6206C63.2503 34.2564 62.8902 33.7418 62.7165 33.1546C62.6435 32.8616 63.5965 31.6886 63.0835 30.8816C62.8185 30.3009 62.6455 29.6825 62.5705 29.0486C62.6435 28.7556 62.8635 28.7556 63.1575 28.4616C63.4515 28.1676 63.2305 27.8016 63.4505 27.3616C63.6705 26.9216 64.8435 26.1157 65.0635 25.7487V24.3597C65.0635 24.3597 65.4305 24.4327 66.4565 23.0397C66.6005 22.8207 67.1865 22.8936 67.6265 22.8206Z" fill="#8BC541"/>
<path d="M84.6404 26.9986C85.9604 25.5326 84.9334 25.0196 84.8604 23.9196C84.4054 23.8595 83.9611 23.736 83.5404 23.5526C83.5404 23.1126 83.7604 22.3796 83.9804 22.3066C84.2004 22.2336 84.0534 21.5006 83.6134 21.4266C83.4564 21.4112 83.3041 21.3643 83.1656 21.2887C83.0271 21.2131 82.9053 21.1104 82.8074 20.9866C82.5144 20.6936 82.0744 19.8136 81.7074 19.6666C80.8697 19.5955 80.0371 19.4729 79.2144 19.2996C79.0092 19.1748 78.8361 19.0037 78.7088 18.8C78.5816 18.5963 78.5037 18.3657 78.4814 18.1266C77.5284 18.5666 77.0884 19.8866 75.0354 19.8866C74.9626 20.4987 74.727 21.08 74.353 21.57C73.9791 22.06 73.4806 22.4408 72.9094 22.6726C72.8499 22.6195 72.7802 22.5791 72.7046 22.5538C72.6289 22.5285 72.5489 22.5189 72.4694 22.5256C71.4434 22.5986 71.1494 23.4056 70.4164 23.5516C69.6834 23.6976 68.5834 23.0386 67.4104 24.5046C67.0496 25.0889 66.543 25.5693 65.9404 25.8986C66.5274 26.3386 67.9934 25.8986 68.9464 26.0456C69.8994 26.1926 69.6064 26.4856 69.9724 26.8516L71.2184 27.2916C71.8644 27.2885 72.4977 27.1113 73.0514 26.7786C73.8841 27.2862 74.8042 27.6342 75.7644 27.8046C75.7644 27.8046 75.6914 28.2446 76.1314 28.1716C76.5714 28.0986 76.2784 29.0516 77.0844 29.3446C77.8904 29.6376 76.6444 30.0046 76.4974 30.2976C76.3504 30.5906 76.6444 31.1036 76.6444 31.6906C76.6444 32.2776 76.4244 32.3506 76.3514 33.1566C76.3643 33.69 76.4893 34.2147 76.7184 34.6966C76.5459 35.3572 76.3 35.9965 75.9854 36.6026C76.0098 36.8817 76.1224 37.1458 76.3069 37.3567C76.4913 37.5675 76.7381 37.7143 77.0114 37.7756C76.3789 38.8849 75.5313 39.8569 74.5184 40.6346C74.5914 41.0016 74.7384 41.2216 75.3984 41.8806C75.6729 42.2177 75.8347 42.6325 75.8611 43.0664C75.8874 43.5004 75.777 43.9317 75.5454 44.2996L75.6924 45.8396C74.5924 46.6456 75.5454 47.3056 75.6924 47.9656C75.8394 48.6256 75.5454 49.1386 76.1324 49.4316C76.7194 49.7246 76.7924 51.5576 77.8184 51.9976C78.8444 52.4376 77.0124 55.8096 77.0124 55.8096L77.2324 55.6626C76.2794 57.6416 77.7454 58.8886 78.1124 60.1346C78.1133 60.9946 78.1869 61.853 78.3324 62.7006C79.1384 63.4336 78.3324 63.6536 78.2594 64.0936V65.3396C77.9102 66.5203 77.9619 67.7834 78.4064 68.9316H78.1864C78.2533 69.5994 78.1783 70.2738 77.9664 70.9106V73.0366L76.7204 74.8696C76.5004 75.3826 76.8674 75.8956 77.2334 76.6296C77.4136 76.8913 77.5039 77.2044 77.4907 77.5218C77.4776 77.8392 77.3617 78.1437 77.1604 78.3896C77.3074 80.3686 76.8674 81.0286 75.7674 81.4686C75.7674 83.6686 76.8674 84.6946 77.0134 85.7206C77.1594 86.7466 75.9134 90.4126 76.8664 91.5126C76.7859 92.0784 76.8362 92.6552 77.0134 93.1986C77.1448 93.6505 77.1946 94.1222 77.1604 94.5916C77.1604 94.5916 77.8204 94.2246 77.8204 90.8526C77.7474 90.4126 78.5534 89.5326 78.9204 88.8736C79.2549 88.1827 79.5487 87.4728 79.8004 86.7476C80.121 86.1169 80.5148 85.5262 80.9734 84.9876C81.1599 84.7516 81.2732 84.4662 81.2993 84.1666C81.3254 83.867 81.2632 83.5663 81.1204 83.3016C80.9221 82.8658 80.8461 82.3843 80.9004 81.9086C80.9734 81.1026 80.9734 80.8826 80.8274 80.6626C80.6814 80.4426 80.8274 79.8566 80.6804 79.7826H80.8274C80.3144 78.9766 81.6334 77.8766 81.4874 77.2166C81.5139 76.5535 81.4645 75.8895 81.3404 75.2376C81.2674 74.9446 80.8274 74.7976 80.6804 74.5046L80.8274 74.2846C80.8021 74.2255 80.7618 74.174 80.7103 74.1354C80.6589 74.0968 80.5983 74.0724 80.5344 74.0646C80.5984 73.8759 80.6232 73.6762 80.6074 73.4776C80.3874 72.2316 82.6604 71.2776 82.1474 68.9326C82.0004 68.1996 81.4144 67.8326 81.1214 67.3196L81.3414 66.4396C81.2684 66.2926 80.9014 66.0726 80.8284 65.7796C80.7554 65.4866 83.3214 60.1346 83.3214 59.6946C83.3214 59.2546 82.8084 58.9616 82.9544 58.6686C83.1504 58.4984 83.3002 58.2815 83.3898 58.038C83.4795 57.7944 83.5062 57.5322 83.4674 57.2756C83.1004 55.0756 81.0484 53.9756 80.9014 52.2166C80.8218 50.9432 81.101 49.6731 81.7074 48.5506C81.6396 47.9534 81.7964 47.3524 82.1474 46.8646C82.1474 46.2046 81.1214 45.6916 80.5344 45.3986C79.9474 45.1056 81.0474 44.3726 81.1214 44.1526C81.1954 43.9326 80.9014 42.5396 80.9014 42.1736H81.1214C81.1214 41.4406 80.6084 40.3406 80.7544 39.8276C80.9004 39.3146 82.6604 37.4816 82.2204 36.6756C81.7804 35.8696 82.1474 36.1626 82.3674 35.8696C82.4705 35.7359 82.5435 35.5816 82.5815 35.4171C82.6195 35.2526 82.6215 35.0819 82.5874 34.9166L83.1004 34.3296C83.1004 34.2566 83.1734 34.1826 82.9534 33.8896C82.7334 33.5966 82.5864 33.2296 84.4934 32.2036L84.3404 30.7376C84.7882 29.8213 85.3029 28.9392 85.8804 28.0986C85.5192 27.6771 85.102 27.307 84.6404 26.9986Z" fill="#8BC541"/>
<path d="M86.616 26.6296C87.349 25.3096 86.249 23.7706 86.176 22.8176L85.516 22.4506C85.589 19.8116 84.856 20.0316 83.976 19.8846C82.436 17.4656 81.19 18.2716 79.944 17.8316C78.698 17.3916 79.431 16.9516 79.284 16.3656C77.084 16.2186 76.645 18.4916 74.005 18.4186C73.638 20.3246 73.272 20.7646 72.832 20.9116C72.392 21.0586 70.119 22.0116 69.899 22.0116C69.606 20.5456 68.726 20.2516 67.626 20.0326C67.553 18.3466 66.16 17.9066 64.987 17.3936L63.667 16.2206C63.0033 15.941 62.3163 15.7202 61.614 15.5606C61.394 15.4136 60.954 15.3406 60.734 14.0206C59.8958 13.9254 59.0536 14.1623 58.388 14.6806L57.362 15.3406L55.971 15.9296C55.018 16.2226 52.671 16.0026 51.352 17.6896C50.9239 17.7808 50.477 17.7019 50.106 17.4696C49.5014 17.4677 48.9029 17.5904 48.3479 17.8301C47.7929 18.0698 47.2932 18.4213 46.88 18.8626C46.2368 19.0511 45.6207 19.322 45.047 19.6686C44.9 19.7416 44.314 19.0816 44.314 19.0816C43.0917 19.2273 41.854 19.176 40.648 18.9296C40.3694 18.8832 40.1054 18.773 39.8764 18.6077C39.6474 18.4424 39.4597 18.2264 39.328 17.9766C39.1126 17.6409 38.8691 17.3241 38.6 17.0296C38.12 16.9627 37.6308 17.0221 37.1808 17.202C36.7308 17.382 36.3355 17.6762 36.034 18.0556C34.861 18.2026 34.274 19.2286 33.321 19.5956C32.0651 19.8696 30.7649 19.8696 29.509 19.5956C28.556 20.0356 27.823 20.0356 27.53 20.6216C27.237 21.2076 26.797 20.6216 26.064 21.2816C24.7904 21.5248 23.5878 22.0511 22.545 22.8216C21.8391 23.5739 21.3112 24.4751 21 25.4586C26.425 24.8716 28.918 26.3386 29.065 26.4116C29.5498 26.3247 30.0473 26.3385 30.5266 26.452C31.0059 26.5656 31.4567 26.7765 31.851 27.0716C31.9431 27.3767 32.0661 27.6715 32.218 27.9516C32.1169 28.2428 31.9682 28.5151 31.778 28.7576C31.705 29.0506 31.558 30.5906 33.831 31.7636C33.831 32.4966 34.344 33.0096 34.418 33.5966C34.492 34.1836 33.612 35.1366 34.418 36.4556C35.224 37.7746 33.243 39.8296 33.243 39.8296C33.243 39.8296 33.023 41.8826 32.876 42.3956C32.5721 43.0699 32.3741 43.787 32.289 44.5216C32.351 45.5135 32.7673 46.45 33.462 47.1606C34.0624 48.0411 34.5316 49.0042 34.855 50.0196C35.442 51.8526 36.248 55.5196 36.248 55.5196C35.955 57.1326 36.541 58.0856 36.101 59.1856C35.7704 59.9724 35.6441 60.83 35.734 61.6786C36.1183 62.035 36.5355 62.3541 36.98 62.6316V64.3916C37.2362 65.3226 37.3598 66.2851 37.347 67.2506C37.347 68.0566 36.614 68.5706 36.394 69.2296C36.0895 70.2916 35.5075 71.2532 34.708 72.0156C34.7339 72.604 34.9012 73.1775 35.1958 73.6875C35.4903 74.1975 35.9034 74.6291 36.4 74.9456C36.84 75.2386 36.767 75.3126 36.62 75.8256C36.4524 76.3995 36.4249 77.0052 36.5397 77.5919C36.6546 78.1786 36.9084 78.7293 37.28 79.1976C36.034 80.8836 37.427 82.4976 37.867 83.6696C38.4969 85.8518 38.9385 88.084 39.187 90.3416L39.554 93.8606C39.77 94.9741 40.2756 96.0109 41.02 96.8666C41.2508 98.1218 41.7789 99.3034 42.56 100.313C43.1223 100.755 43.7381 101.125 44.393 101.413V99.9466C44.246 98.3336 45.053 97.0136 44.32 94.7416C44.103 93.3814 43.9562 92.0109 43.88 90.6356C43.88 90.6356 44.906 86.3096 43.88 84.7706C44.3927 83.8293 44.5241 82.727 44.247 81.6916C44.32 80.9586 45.567 79.8586 44.394 77.8056C44.0177 76.9673 43.8109 76.0629 43.7857 75.1443C43.7605 74.2258 43.9172 73.3113 44.247 72.4536C44.834 71.0606 44.907 69.5206 45.42 68.0536C45.933 66.5866 47.326 63.5816 45.127 62.1156C45.1926 61.5241 45.2904 60.9365 45.42 60.3556C45.42 60.3556 46.007 59.6226 45.053 57.8626C45.327 57.3827 45.525 56.8632 45.64 56.3226C46.227 55.2966 47.253 54.4166 47.18 53.0966C47.0521 52.2137 46.6066 51.4076 45.927 50.8296C45.634 50.1696 44.974 48.7036 44.681 47.9706C44.7248 47.5098 44.6617 47.045 44.4963 46.6126C44.331 46.1801 44.0681 45.7917 43.728 45.4776C43.5827 45.0276 43.5575 44.5474 43.655 44.0846C43.7923 43.6025 43.8037 43.0933 43.6882 42.6056C43.5726 42.1178 43.334 41.6679 42.995 41.2986C42.189 40.5656 44.755 38.7326 44.755 37.0466L44.975 36.7536C45.048 35.1406 45.195 33.6016 43.802 33.7476C43.875 32.7216 43.215 31.1816 44.242 30.3756C44.7571 30.3338 45.2453 30.1281 45.635 29.7886C46.1363 29.6026 46.6511 29.4555 47.175 29.3486C47.175 29.3486 46.295 26.7826 47.468 25.7566L47.028 24.2166C48.568 23.7036 49.007 24.9496 51.28 24.9496C51.72 25.3896 51.5 25.6826 51.5 25.6826C51.6697 26.3817 51.9955 27.0334 52.453 27.5886C52.453 27.5886 52.453 28.9816 51.72 29.1286C50.987 29.2756 51.133 32.9406 53.48 34.0406C53.7 34.1136 53.7 34.1876 53.7 34.4806C53.26 36.3136 52.82 37.7066 53.553 39.5396C53.553 39.5396 52.893 39.9066 53.773 41.0796C53.406 42.9856 52.893 44.8916 54.579 46.2116C54.6421 46.264 54.6892 46.3329 54.7152 46.4107C54.7412 46.4884 54.7449 46.5719 54.726 46.6516C54.653 46.9446 53.773 50.8306 54.139 51.9306C54.505 53.0306 53.699 54.1306 54.726 55.3026C54.726 55.3026 55.752 58.5286 55.752 58.7486C55.344 59.5355 54.9769 60.3429 54.652 61.1676C54.652 61.6076 54.652 62.0476 54.432 62.1936C54.2548 63.2108 54.1569 64.2403 54.139 65.2726C53.8072 65.5453 53.5469 65.8949 53.3808 66.291C53.2148 66.6871 53.1479 67.1178 53.186 67.5456C52.526 69.4516 52.16 69.8186 51.866 69.9646C51.7865 70.6757 51.8707 71.3955 52.1122 72.069C52.3536 72.7426 52.7459 73.352 53.259 73.8506C53.552 74.1436 53.406 74.3636 53.626 74.5836C53.2434 76.2437 53.1935 77.9631 53.479 79.6426C53.5684 80.2987 53.6175 80.9596 53.626 81.6216L54.213 81.9886C54.14 83.0146 53.626 83.6016 54.14 84.6276C53.9168 85.0027 53.793 85.4284 53.7802 85.8647C53.7675 86.3009 53.8662 86.7332 54.067 87.1206V88.2936C54.58 89.4666 54.287 89.8336 54.58 90.2726C54.318 90.7092 54.0238 91.1257 53.7 91.5186C53.5843 92.1874 53.6528 92.8751 53.8982 93.5078C54.1436 94.1406 54.5567 94.6947 55.093 95.1106C55.1459 95.3479 55.2455 95.5722 55.386 95.7706C55.5128 96.814 55.8101 97.8296 56.266 98.7766C56.266 98.7766 56.339 99.5826 56.046 99.7296V101.27C55.7748 102.202 55.6028 103.16 55.533 104.129C55.4947 104.884 55.6263 105.638 55.9181 106.336C56.2098 107.034 56.6544 107.657 57.219 108.161C57.659 106.621 58.245 106.401 58.759 105.522L60.665 102.443C60.9178 101.085 61.0891 99.7143 61.178 98.3366C61.838 97.9696 61.838 97.0906 61.618 95.5506C61.398 94.0106 62.131 92.5446 62.058 92.1786C63.451 90.1256 62.645 88.6596 61.252 86.8996L61.1 85.2826C60.807 85.0626 61.247 82.7896 61.32 80.4436C61.32 79.7836 61.027 79.7106 61.247 79.4906C62.567 78.1706 61.1 76.8516 61.834 75.3116C61.84 75.0117 61.7901 74.7133 61.687 74.4316C61.859 74.0516 61.948 73.6393 61.948 73.2221C61.948 72.805 61.859 72.3926 61.687 72.0126C61.907 71.8656 61.76 71.4256 61.76 71.4256C61.9773 70.9716 62.0714 70.4685 62.0328 69.9667C61.9942 69.4648 61.8242 68.982 61.54 68.5666C61.589 68.1775 61.6134 67.7858 61.613 67.3936C61.8962 66.8597 62.2146 66.3453 62.566 65.8536V65.0476C63.2481 64.2575 63.5907 63.23 63.519 62.1886C64.325 60.2826 65.059 60.2096 65.719 59.1826C66.379 58.1556 65.939 57.7896 66.012 57.3496C66.305 55.8836 65.206 53.0976 64.546 51.6316C64.5528 50.947 64.4022 50.2699 64.106 49.6526C64.7571 48.3101 64.9871 46.8022 64.766 45.3266C66.086 44.2266 66.672 43.1266 65.792 39.8266C65.572 39.1666 65.205 38.5066 65.059 37.8476C65.3852 37.0484 65.6071 36.2105 65.719 35.3546C65.719 34.2546 65.059 33.8146 64.473 33.0086C65.133 31.6886 64.766 30.8086 64.4 29.6366C64.8081 29.2261 65.0441 28.6753 65.06 28.0966L65.793 27.4366C66.7575 27.6439 67.7523 27.6686 68.726 27.5096L69.386 28.1696C69.9747 28.2781 70.5432 28.4761 71.072 28.7566C71.8227 28.7858 72.5714 28.6609 73.272 28.3896L74.738 28.9026C74.8024 29.2259 74.9854 29.5134 75.251 29.7086C74.958 30.2956 75.398 31.2486 75.251 31.6146C74.9504 32.5735 74.9761 33.6049 75.324 34.5476C75.2282 35.0832 75.0015 35.5868 74.664 36.0136C74.6195 36.3495 74.6419 36.6908 74.7299 37.0179C74.818 37.3451 74.9699 37.6515 75.177 37.9196C74.9785 38.3413 74.6929 38.7162 74.3391 39.0196C73.9852 39.3229 73.5711 39.5479 73.124 39.6796C72.831 41.5126 74.444 42.5386 74.59 42.9056C74.736 43.2726 74.152 43.9296 74.152 43.9296V45.1756C73.565 45.9086 73.419 46.6416 74.225 48.1816C74.1872 48.6201 74.2539 49.0614 74.4196 49.4691C74.5852 49.8769 74.8451 50.2397 75.178 50.5276C75.325 50.6006 75.398 50.7476 75.471 51.0406C75.6143 51.5736 75.8636 52.0722 76.204 52.5066C75.837 54.4126 75.544 55.8786 75.544 55.8786C75.3919 56.4802 75.3919 57.1101 75.544 57.7116C75.8354 58.6091 76.229 59.47 76.717 60.2776C76.717 60.7906 76.79 62.4036 76.864 62.9166C76.938 63.4296 77.084 63.1366 77.011 63.2096C76.9311 63.3172 76.8804 63.4436 76.864 63.5766V65.0426C76.7126 66.0615 76.6634 67.093 76.717 68.1216C76.845 68.8854 76.7691 69.6695 76.497 70.3946V72.5946C76.0978 73.1856 75.7316 73.7982 75.4 74.4296C74.887 75.9696 75.987 77.2156 76.06 77.5086L75.767 77.9486C75.8659 78.5801 75.8659 79.2231 75.767 79.8546C75.62 80.1476 74.447 80.3676 74.447 80.3676C74.3116 82.2837 74.745 84.197 75.693 85.8676C75.766 86.0146 74.447 90.4126 75.473 91.8796L76.206 94.6656L77.452 97.2316C78.2281 96.3771 78.782 95.3447 79.065 94.2256L79.578 91.2196C80.824 89.5336 81.484 87.0406 81.997 86.4546C82.3226 86.1571 82.5821 85.7946 82.7589 85.3905C82.9356 84.9864 83.0256 84.5497 83.023 84.1086C83.0048 83.4813 82.8807 82.8616 82.656 82.2756C82.7558 81.5925 82.7311 80.8969 82.583 80.2226C82.685 79.8882 82.685 79.531 82.583 79.1966C83.0756 78.4874 83.3321 77.641 83.316 76.7776C83.316 76.4846 83.463 74.5776 82.583 73.9186C82.5313 73.8828 82.4878 73.8363 82.4556 73.7822C82.4233 73.7282 82.4031 73.6678 82.3961 73.6052C82.3892 73.5427 82.3958 73.4794 82.4155 73.4196C82.4351 73.3598 82.4673 73.3049 82.51 73.2586C83.0613 72.5713 83.5063 71.8051 83.83 70.9856C84.636 68.3466 83.537 67.1736 83.17 66.8066C82.803 66.4396 83.317 65.9266 83.39 65.4866C83.463 65.0466 82.95 65.2666 83.023 64.9736C83.096 64.6806 85.149 60.6476 85.149 59.6216C85.1633 59.3453 85.1123 59.0695 85 58.8166C85.2176 58.2063 85.2928 57.5544 85.22 56.9106C84.9807 55.6304 84.3979 54.4392 83.534 53.4646C83.1246 53.0557 82.8223 52.5522 82.654 51.9986C82.6162 50.8257 82.9498 49.6708 83.607 48.6986C83.5262 48.4829 83.5263 48.2453 83.6072 48.0297C83.6881 47.814 83.8443 47.635 84.047 47.5256C84.1424 46.9899 84.0745 46.4378 83.8522 45.9412C83.6298 45.4445 83.2632 45.0262 82.8 44.7406C83.313 44.4476 83.02 42.5406 82.58 40.1216C82.58 40.1216 84.559 38.2156 84.046 36.5296C84.2347 36.2151 84.3594 35.8664 84.413 35.5036C84.605 35.3148 84.751 35.0844 84.84 34.8303C84.9289 34.5761 84.9583 34.3049 84.926 34.0376C85.3037 33.5914 85.7808 33.24 86.319 33.0116C86.319 33.0116 86.246 31.3986 86.246 31.1056C86.246 30.8126 87.859 29.0526 87.786 28.1726C87.7071 27.849 87.5621 27.5452 87.3603 27.2802C87.1584 27.0152 86.904 26.7947 86.613 26.6326L86.616 26.6296ZM64.988 24.3596V25.7526C64.768 26.1196 63.595 26.9986 63.375 27.3656C63.155 27.7326 63.448 28.1716 63.082 28.4656C62.716 28.7596 62.569 28.8326 62.495 29.0526C62.57 29.6865 62.743 30.3049 63.008 30.8856C63.521 31.6916 62.495 32.5716 62.641 33.1586C62.787 33.7456 62.788 33.8186 63.667 34.6246C64.546 35.4306 63.154 36.9706 63.227 37.8506C63.3 38.7306 64.913 42.4696 64.253 43.3506C63.593 44.2316 62.86 44.3036 62.713 45.2566C62.566 46.2096 62.933 47.8956 62.346 49.1426C62.2607 49.2735 62.2153 49.4264 62.2153 49.5826C62.2153 49.7389 62.2607 49.8917 62.346 50.0226C62.6157 50.5947 62.7416 51.2239 62.713 51.8556C63.226 52.7356 64.473 56.3276 64.253 56.9146L64.033 58.4546C63.3 59.6276 62.86 59.0416 61.98 61.1676C61.7723 61.5211 61.6945 61.9359 61.76 62.3406C61.833 63.3666 60.954 64.1006 60.88 64.3196C60.8111 64.6339 60.762 64.9522 60.733 65.2726C60.3208 65.8728 60.0225 66.5436 59.853 67.2516C59.869 67.6441 59.8445 68.0372 59.78 68.4246C59.707 68.7176 59.487 68.7916 59.707 69.1576C59.927 69.5236 59.927 69.5976 59.707 69.6706C59.487 69.7436 60.074 70.9166 59.78 71.3566L60 71.5036C59.9042 71.5674 59.8268 71.6552 59.7754 71.7581C59.724 71.8611 59.7004 71.9757 59.707 72.0906C59.78 72.3836 60.22 72.5306 60.22 73.0436C60.1256 73.4993 59.9779 73.9424 59.78 74.3636C59.9242 74.5867 60.0237 74.8356 60.073 75.0966C59.56 76.4896 60.513 77.7356 60.146 78.1756C59.779 78.6156 59.34 78.8356 59.413 79.0556C60 80.7416 59.413 82.6476 59.56 83.9676C59.707 85.2876 58.9 85.9466 59.12 85.9466C59.34 85.9466 59.707 87.3396 59.707 87.3396C59.707 87.3396 61.32 89.2456 61.32 89.9056C61.32 90.5656 60.587 91.2256 60.514 91.5916C60.4949 92.3258 60.5193 93.0604 60.587 93.7916C60.453 94.2308 60.2552 94.6479 60 95.0296C60.073 95.5426 60.293 96.8626 60.073 97.0086C59.853 97.1546 59.78 98.9876 59.487 99.1346L59.34 101.628L58.973 101.848C58.753 102.141 58.826 102.801 58.606 103.168C57.7639 103.914 57.1981 104.922 57 106.03C56.7619 105.36 56.6711 104.647 56.7339 103.94C56.7968 103.232 57.0117 102.547 57.364 101.93C57.364 101.93 57.291 100.684 57.657 100.464C58.023 100.244 57.73 97.6776 57.73 97.6776C57.73 97.6776 56.997 97.6776 56.85 95.2586H56.923C56.783 95.1277 56.6597 94.9799 56.556 94.8186C56.5676 94.6918 56.5422 94.5644 56.483 94.4516C56.3762 94.2501 56.2259 94.0749 56.043 93.9386C55.8034 93.7928 55.6022 93.5919 55.456 93.3526C55.2941 92.9294 55.1954 92.4846 55.163 92.0326C55.456 91.5926 56.336 90.7866 56.336 89.9796C56.336 89.1726 56.116 89.9066 55.969 89.3926C55.8897 88.918 55.7668 88.4517 55.602 87.9996V86.7496C55.4327 86.4586 55.3324 86.1325 55.309 85.7966C55.309 85.3566 55.822 85.0636 55.822 84.5506C55.822 84.0376 55.235 83.8176 55.455 83.3046C55.6665 82.7658 55.7904 82.1966 55.822 81.6186C55.7742 81.2081 55.6497 80.8102 55.455 80.4456H55.088C54.6771 78.4041 54.7525 76.2946 55.308 74.2876C55.0923 74.1548 54.935 73.945 54.868 73.7006C54.8088 73.451 54.6818 73.2226 54.501 73.0406C54.1674 72.761 53.8969 72.4139 53.7073 72.0221C53.5177 71.6303 53.4133 71.2027 53.401 70.7676C53.914 70.5476 54.281 68.7146 54.501 68.4946C54.721 68.2746 54.648 67.3946 54.794 67.1016C54.94 66.8086 55.6 66.4416 55.674 66.1486L55.894 63.5096L56.114 63.7296L56.261 61.6766C56.7055 60.8217 57.0972 59.9404 57.434 59.0376C57.581 58.4506 56.408 55.2256 56.408 55.2256C56.408 55.2256 56.775 54.6386 55.968 54.0526C55.161 53.4666 55.308 53.6856 55.601 53.0996C55.894 52.5136 55.234 51.4136 55.674 50.7536C56.114 50.0936 55.894 47.6746 56.407 46.1346C56.92 44.5946 55.234 44.9616 55.087 44.5216C54.94 44.0816 55.747 40.8556 55.16 40.1956C54.573 39.5356 55.233 40.0486 55.307 39.9756C55.3421 39.9625 55.3733 39.9406 55.3976 39.9121C55.4219 39.8835 55.4384 39.8492 55.4458 39.8125C55.4531 39.7757 55.4509 39.7377 55.4394 39.702C55.4279 39.6663 55.4074 39.6342 55.38 39.6086C53.987 37.0426 55.6 34.8436 55.527 33.7436C55.454 32.6436 53.4 33.0106 53.4 31.0296C53.4 30.2236 54.133 30.5896 54.133 30.5896C54.133 30.5896 53.84 30.2226 54.28 26.7776C53.913 26.6306 53.693 26.5576 53.547 26.2646C53.7121 26.246 53.8686 26.1809 53.9983 26.0771C54.1281 25.9732 54.2257 25.8347 54.28 25.6776C53.693 25.4576 53.18 24.5776 52.814 24.0646C52.1802 23.5854 51.4576 23.2366 50.688 23.0386V23.3296C49.8238 23.0325 48.9426 22.7877 48.049 22.5966C47.243 22.5966 45.41 23.1096 45.263 23.5496C45.6022 24.0936 45.8511 24.689 46 25.3126C45.719 25.4498 45.4892 25.6732 45.3442 25.9503C45.1991 26.2273 45.1465 26.5435 45.194 26.8526C45.561 27.2196 45.487 28.0986 45.634 28.3926C45.781 28.6866 45.047 28.7596 44.681 28.9056C44.315 29.0516 43.875 28.9056 43.581 29.2726C43.287 29.6396 41.968 30.5186 42.555 33.9646C42.6312 34.4168 42.5537 34.8815 42.335 35.2846C42.335 35.2846 43.508 35.1376 43.655 35.3576C43.7466 35.6665 43.7715 35.9914 43.728 36.3106C43.435 36.6776 43.655 37.2636 43.288 37.7766C42.2785 38.9617 41.7315 40.4719 41.748 42.0286C41.968 42.3216 42.261 42.3216 42.408 42.6156C42.555 42.9096 42.335 44.2286 42.481 44.5946H42.188C42.481 45.1076 41.968 45.4746 42.408 46.1346C42.848 46.7946 43.068 46.9406 43.141 47.3806C43.214 47.8206 43.141 48.1866 43.214 48.4066C43.287 48.6266 44.607 51.6296 44.607 51.6296C44.607 51.6296 45.633 52.5096 45.707 53.2426C45.4608 53.9124 45.0281 54.4978 44.46 54.9296C43.654 55.8826 43.947 56.4696 43.58 56.9086C43.2011 57.2592 42.9443 57.7217 42.847 58.2286C44.533 59.4016 43.287 59.6946 43.287 62.8476C43.287 63.2146 44.533 63.6536 44.607 64.1676C44.5339 65.3378 44.235 66.4829 43.727 67.5396C43.58 67.9066 43.14 70.1056 42.847 70.9856C42.3058 72.1383 41.9827 73.3813 41.894 74.6516C42.187 77.9516 43.214 79.0516 43.067 79.5636L42.334 81.4696C42.341 81.7684 42.3905 82.0647 42.481 82.3496C42.5817 82.6343 42.5817 82.9449 42.481 83.2296C42.2254 83.6921 42.0282 84.1845 41.894 84.6956C41.894 85.2086 42.334 85.6486 42.407 85.9416C42.48 86.2346 41.894 90.5606 41.894 90.5606C41.967 91.9536 42.334 95.1056 42.334 94.9606C42.7637 95.536 43.0183 96.2231 43.067 96.9396C42.994 97.6726 42.48 98.0396 42.48 98.4796C42.48 98.9196 42.92 98.9926 42.847 99.5056C42.774 100.019 42.334 98.8456 42.114 98.4796C41.894 98.1136 42.554 96.5736 42.114 96.0606C41.6997 95.6359 41.331 95.1691 41.014 94.6676C40.208 93.1276 40.281 88.5826 39.841 87.4826C39.601 86.7124 39.405 85.9291 39.254 85.1366C39.1142 84.143 38.8172 83.1779 38.374 82.2776C37.348 80.5916 37.787 80.5176 38.521 79.2716C39.255 78.0256 37.275 77.8056 37.421 76.7056C37.567 75.6056 37.934 75.4596 37.861 75.0196C37.788 74.5796 36.028 73.6996 35.808 72.4536C35.588 71.2076 36.908 70.1076 37.714 69.2276C38.52 68.3476 38.081 64.6086 38.007 64.3156L38.154 61.8966L36.908 61.0906C36.835 60.5776 37.641 59.1846 37.495 58.5976C37.3212 57.5538 37.3212 56.4884 37.495 55.4446L36.322 50.6796C35.8993 48.9427 35.1529 47.301 34.122 45.8406C33.8542 45.4721 33.6783 45.0449 33.609 44.5946C33.6905 43.962 33.8633 43.3446 34.122 42.7616C34.195 42.1746 34.489 40.1956 34.489 40.1956C35.0107 38.9295 35.4515 37.6315 35.809 36.3096C35.882 36.0166 35.149 35.4296 35.589 34.6966C36.029 33.9636 36.176 33.5966 35.222 31.8376V31.1046C35.15 30.5906 33.1 29.8576 33.1 29.1296C33.4289 28.7818 33.6571 28.3511 33.76 27.8836C33.5264 27.6724 33.3714 27.3883 33.32 27.0776C32.953 24.8776 29.214 24.8776 29.214 24.8776C26.575 23.7776 24.522 23.6316 22.836 24.1446C23.2923 23.5058 23.9313 23.0201 24.669 22.7516H26.282C26.575 22.6786 26.942 22.3116 27.162 22.2386C27.382 22.1656 28.042 22.1656 28.335 21.9456C28.628 21.7256 28.482 21.5786 28.555 21.5056C28.628 21.4326 29.361 21.2856 29.508 21.1386C30.9711 21.4183 32.48 21.3429 33.908 20.9186C34.568 20.6256 35.521 19.7456 35.961 19.5986H36.694C37.281 19.3056 37.207 18.4256 37.94 18.3526C38.673 18.2796 38.233 19.3056 38.893 19.8186C39.553 20.3316 40.359 20.8446 43.658 20.6246C44.0139 21.1288 44.4936 21.5327 45.051 21.7976C45.3507 21.3917 45.7358 21.0566 46.1792 20.8159C46.6226 20.5752 47.1134 20.4348 47.617 20.4046C47.7011 20.1291 47.8838 19.8942 48.13 19.7446C48.57 19.6716 48.936 19.0116 49.596 19.0846C50.3818 19.3105 51.2076 19.3607 52.015 19.2316C52.2233 18.7974 52.5601 18.4378 52.9798 18.2017C53.3995 17.9655 53.8818 17.8643 54.361 17.9116C54.508 17.7646 55.094 17.8386 55.607 17.6916C58.173 16.9586 58.613 16.3716 58.613 16.3716C58.7901 16.1516 59.0161 15.9759 59.273 15.8586C59.5049 15.772 59.7551 15.7455 60 15.7816C60.1007 16.2287 60.3302 16.6365 60.66 16.9546C61.173 17.3216 61.833 17.2476 62.786 17.7606L64.035 18.9296C64.695 19.3696 65.941 19.2966 66.014 20.2496C66.087 21.2026 65.501 20.6896 65.574 21.2756C65.647 21.8616 65.867 21.4226 66.014 21.5686C66.161 21.7146 68.287 21.4956 68.36 22.5216C68.433 23.5476 67.847 22.9616 67.554 23.0346C67.261 23.1076 66.601 23.1076 66.381 23.3276C65.428 24.4296 64.988 24.3596 64.988 24.3596ZM84.27 30.8106L84.417 32.2766C82.511 33.3026 83.391 33.7426 82.877 33.9626C82.363 34.1826 83.024 34.3296 83.024 34.4026L82.511 34.9896C82.5451 35.1549 82.543 35.3257 82.5051 35.4901C82.4671 35.6546 82.3941 35.809 82.291 35.9426C82.071 36.3096 81.924 36.3826 82.144 36.7486C82.364 37.1146 80.824 39.0946 80.678 39.9006C80.532 40.7066 81.118 41.4406 81.045 42.2466H80.825C80.825 42.6136 81.045 43.8596 81.045 44.2256C81.045 44.5916 80.458 44.8856 80.458 45.4716C80.458 46.0576 82.071 46.2776 82.071 46.9376C81.72 47.4254 81.5631 48.0265 81.631 48.6236C81.0246 49.7461 80.7454 51.0163 80.825 52.2896C80.972 54.0496 83.098 55.0756 83.391 57.3486C83.4298 57.6052 83.4031 57.8675 83.3134 58.111C83.2237 58.3545 83.074 58.5715 82.878 58.7416C82.805 59.1086 83.245 59.3276 83.245 59.7676C83.245 60.2076 80.752 65.1926 80.826 65.7056C80.9 66.2186 81.266 66.2186 81.339 66.3656L81.119 67.2456C81.412 67.7586 81.999 68.1256 82.145 68.8586C82.585 71.2046 80.312 72.1586 80.605 73.4036C80.6208 73.6022 80.596 73.8019 80.532 73.9906C80.5958 73.9984 80.6565 74.0228 80.7079 74.0614C80.7593 74.1001 80.7997 74.1515 80.825 74.2106L80.678 74.4306C80.825 74.7236 81.191 74.8706 81.338 75.1636C81.4621 75.8155 81.5114 76.4795 81.485 77.1426C81.632 77.8756 80.312 78.9026 80.825 79.7086H80.678C80.8075 79.9827 80.8584 80.2873 80.825 80.5886C80.8957 80.9999 80.9202 81.4179 80.898 81.8346C80.8436 82.3103 80.9197 82.7918 81.118 83.2276C81.2608 83.4923 81.323 83.793 81.2969 84.0926C81.2707 84.3922 81.1575 84.6776 80.971 84.9136C80.5123 85.4522 80.1186 86.043 79.798 86.6736C79.5463 87.3988 79.2525 88.1087 78.918 88.7996C78.551 89.4596 77.745 90.3396 77.818 90.7786C77.818 94.1506 77.158 94.5176 77.158 94.5176C77.1922 94.0482 77.1424 93.5765 77.011 93.1246C76.8338 92.5812 76.7835 92.0045 76.864 91.4386C75.911 90.3386 77.084 86.0866 77.011 85.6466C76.3057 84.3309 75.8814 82.8829 75.765 81.3946C76.865 81.0276 77.305 80.2946 77.158 78.3156C77.3592 78.0698 77.4752 77.7652 77.4883 77.4478C77.5015 77.1304 77.4112 76.8173 77.231 76.5556C76.864 75.8226 76.498 75.3096 76.718 74.7956L77.891 72.8896V70.7666C78.1029 70.1298 78.1779 69.4554 78.111 68.7876H78.331C77.8865 67.6394 77.8348 66.3763 78.184 65.1956V64.0956C78.257 63.6556 79.064 63.5086 78.257 62.7026C78.1606 61.8509 78.1362 60.9925 78.184 60.1366C77.817 58.8906 76.278 57.6436 77.304 55.6646L77.084 55.8116C77.084 55.8116 77.89 52.5116 77.89 51.9996C77.6715 50.9615 77.0699 50.0439 76.205 49.4296C76.0777 49.3645 75.9648 49.2744 75.8733 49.1645C75.7817 49.0547 75.7133 48.9275 75.6722 48.7905C75.6311 48.6535 75.6181 48.5097 75.6341 48.3676C75.65 48.2255 75.6946 48.0881 75.765 47.9636C75.765 47.9636 74.665 46.5706 75.765 45.8376L75.618 44.2976C75.985 43.4916 76.424 42.7576 75.471 41.8786C74.518 40.9996 74.665 40.9256 74.591 40.6326C75.6456 39.8204 76.5198 38.7978 77.158 37.6296C76.8846 37.5683 76.6379 37.4216 76.4534 37.2107C76.269 36.9998 76.1564 36.7357 76.132 36.4566C76.4466 35.8506 76.6924 35.2113 76.865 34.5506C76.7091 34.0459 76.5865 33.5314 76.498 33.0106C76.498 32.4976 76.791 31.8376 76.791 31.5446C76.7058 31.0848 76.6567 30.6191 76.644 30.1516C76.717 29.8586 77.157 29.4916 77.231 29.1986C77.305 28.9056 76.278 28.7586 76.278 28.0256C76.278 27.2926 75.911 27.6586 75.911 27.6586C74.9512 27.4871 74.0319 27.1381 73.2 26.6296C72.6462 26.9623 72.013 27.1396 71.367 27.1426L70.121 26.7026C69.681 26.3356 69.681 26.0426 69.095 25.8966C68.509 25.7506 66.676 26.1896 66.089 25.7496C66.69 25.42 67.1952 24.94 67.555 24.3566C68.728 22.8906 69.608 23.6236 70.561 23.4036C71.514 23.1836 71.587 22.4506 72.614 22.3776C72.6935 22.3709 72.7735 22.3805 72.8491 22.4058C72.9248 22.4311 72.9945 22.4715 73.054 22.5246C73.5742 22.2692 74.0216 21.8866 74.3547 21.4124C74.6879 20.9382 74.8961 20.3876 74.96 19.8116C77.086 19.7386 77.526 18.4916 78.406 18.0516C78.4282 18.2908 78.5061 18.5214 78.6334 18.725C78.7607 18.9287 78.9338 19.0998 79.139 19.2246C79.799 19.5176 80.825 19.2976 81.632 19.5916C82.439 19.8856 82.512 20.6176 82.732 20.9116C82.8299 21.0354 82.9517 21.1382 83.0902 21.2138C83.2286 21.2894 83.381 21.3363 83.538 21.3516C83.978 21.4246 83.905 21.8646 83.905 22.2316C83.905 22.5986 83.465 23.1116 83.465 23.4776C83.8857 23.661 84.33 23.7846 84.785 23.8446C84.858 24.9446 85.885 25.3846 84.565 26.9236C84.858 27.1436 85.665 27.7296 85.811 28.1696C85.2303 29.034 84.7155 29.9409 84.271 30.8826L84.27 30.8106Z" fill="black"/>
</svg>
