<svg width="114" height="114" viewBox="0 0 114 114" fill="none" xmlns="http://www.w3.org/2000/svg">
<circle cx="57" cy="57" r="57" fill="#1F1F1F"/>
<path d="M45.1745 34.7015L30.0762 22.56L33.1116 41.5503L56.5381 46.2979V17.6572L45.1745 34.7015Z" fill="#D0CFCD"/>
<path d="M33.034 43.1849L30.0762 77.5861L43.9299 87.3927C42.5292 84.9025 42.0626 80.6991 42.1402 77.6637V64.2764L47.2768 66.5328V61.0848L42.0626 58.127L38.5595 54.236V51.1231L50.8563 54.8588V75.7952C50.8563 75.7952 51.0901 85.9132 46.6539 89.2589L56.5381 96.2639V48.2439L33.034 43.1849Z" fill="#D0CFCD"/>
<path d="M64.6318 29.72L82.9994 22.5598L67.9786 34.7014L64.6318 29.72Z" fill="#D0CFCD"/>
<path d="M80.0422 43.1849L83 77.5861L69.1462 87.3916C70.547 84.9014 71.0922 80.6204 71.0136 77.6625V64.2764L65.877 66.6115V61.1635L71.0911 58.2057L74.5942 54.3147V51.1231L62.2975 54.9364V75.7952C62.2975 75.7952 61.9861 85.9908 66.4998 89.2589L56.5381 96.2639V48.2439L80.0422 43.1849Z" fill="#858688"/>
<path d="M48.4437 29.72L30.0762 22.5598L45.1745 34.7014L48.4437 29.72Z" fill="#858688"/>
<path d="M67.9793 34.7015L83 22.56L80.0422 41.5503L56.5381 46.2979V17.6572L67.9793 34.7015Z" fill="#858688"/>
</svg>
